<?xml version="1.0" standalone="no"?>
<svg version="1.0" xmlns="http://www.w3.org/2000/svg"
 width="399.000000pt" height="375.000000pt" viewBox="0 0 399.000000 375.000000"
 preserveAspectRatio="xMidYMid meet">

<g transform="translate(0.000000,375.000000) scale(0.100000,-0.100000)"
fill="#000000" stroke="none">
<path d="M3098 3615 c-3 -3 -3 -37 0 -75 7 -100 -45 -325 -132 -572 -51 -145
-177 -458 -210 -523 -8 -16 -40 -87 -70 -157 -58 -134 -91 -193 -121 -218 -17
-14 -17 -13 -9 10 5 14 9 45 9 70 l0 44 -65 27 c-138 58 -210 71 -417 76 -282
8 -396 -10 -574 -90 -67 -29 -73 -46 -48 -118 10 -29 16 -55 13 -58 -13 -14
-61 72 -153 274 -180 397 -300 719 -371 995 -36 142 -41 175 -37 239 l4 73
-35 -6 c-54 -8 -135 -69 -160 -120 -47 -92 -18 -331 74 -618 72 -226 165 -451
312 -753 l135 -280 5 -153 4 -152 90 -85 c95 -91 92 -96 -15 -28 -37 24 -69
43 -72 43 -3 0 -5 -25 -5 -55 0 -54 56 -297 121 -524 31 -108 253 -666 273
-688 13 -14 160 -73 182 -73 19 0 18 7 -21 203 l-28 138 -41 29 c-60 41 -87
73 -157 185 -126 203 -122 193 -115 255 16 136 70 240 125 240 12 0 81 -23
154 -51 265 -102 268 -102 479 -17 170 68 213 75 252 39 38 -36 66 -112 73
-201 l6 -80 -104 -172 c-81 -134 -113 -178 -147 -202 -23 -17 -45 -39 -47 -51
-2 -11 -13 -69 -25 -128 -12 -59 -27 -128 -35 -152 -7 -25 -10 -47 -6 -49 13
-9 169 72 184 95 9 13 55 121 103 239 47 118 98 242 111 275 73 179 209 745
179 745 -4 0 -41 -21 -83 -46 -41 -25 -78 -43 -81 -40 -3 4 34 46 81 95 l87
88 0 139 0 139 113 225 c227 453 365 828 417 1133 24 140 25 225 6 271 -19 45
-79 111 -119 129 -39 18 -82 28 -89 22z"/>
<path d="M967 3583 c-11 -11 -8 -113 5 -155 9 -30 36 -62 109 -131 53 -51 145
-146 204 -212 148 -165 139 -157 119 -110 -64 157 -193 379 -282 488 -81 99
-135 141 -155 120z"/>
<path d="M2971 3544 c-114 -102 -232 -292 -368 -589 -3 -5 30 28 73 75 136
147 262 275 304 306 21 16 46 45 53 64 31 77 32 190 2 190 -7 0 -36 -21 -64
-46z"/>
</g>
</svg>
